# xmcd
#
# Track frame offsets: 
#        150
#        11582
#        21905
#        32311
#        45046
#        54313
#        67766
#        78257
#        89889
#        100205
#        110135
#        123833
#        131819
#        140216
#        153278
#        166658
#        178251
#        189908
#        202086
#        220657
#
# Disc length: 3172 seconds
#
# Revision: 1
# Processed by: cddbd v1.5.2PL0 Copyright (c) Steve Scherf et al.
# Submitted via: ExactAudioCopyFreeDBPlugin 1.0
#
DISCID=090c6214
DTITLE=Johnny Cash - Man in Black The Very Best Of CD 1
DYEAR=2002
DGENRE=Country
TTITLE0=A Thing Called Love (1972)
TTITLE1=Kate (1972)
TTITLE2=Bonanza (1962)
TTITLE3=Wanted Man (1970)
TTITLE4=I Got Stripes (1959)
TTITLE5=The Chicken In Black (1984)
TTITLE6=Hey Porter (1970)
TTITLE7=I Walk The Line (1964)
TTITLE8=Big River (1958)
TTITLE9=All Over Again (Album Version) (1958)
TTITLE10=Don't Take Your Guns To Town (Album Version) (1958)
TTITLE11=Five Feet High And Rising (Album Version) (1959)
TTITLE12=The Rebel - Johnny Yuma (Album Version) (1961)
TTITLE13=Forty Shades Of Green (Album Version) (1961)
TTITLE14=Tennessee Flat -Top Box (Album Version) (1961)
TTITLE15=I Still Miss Someone (1958)
TTITLE16=Ring Of Fire (Album Version) (1963)
TTITLE17=Stand By Your Man (Album Version) (1964)
TTITLE18=The Ballad Of Ira Hayes (Album Version) (1964)
TTITLE19=Were You There ? (When They Crucified My Lord) (Album Version
TTITLE19=) (1962)
EXTD=YEAR: 2002
EXTT0=
EXTT1=
EXTT2=
EXTT3=
EXTT4=
EXTT5=
EXTT6=
EXTT7=
EXTT8=
EXTT9=
EXTT10=
EXTT11=
EXTT12=
EXTT13=
EXTT14=
EXTT15=
EXTT16=
EXTT17=
EXTT18=
EXTT19=
PLAYORDER=
